PathFileType	4	(X/Y/Z)	9_2_85_p0_0-177_filt_butterworth.trc
DataRate	CameraRate	NumFrames	NumMarkers	Units	OrigDataRate	OrigDataStartFrame	OrigNumFrames
59.0	59.0	7	27	m	59.0	22	177
Frame#	Time	RHip			RKnee			RAnkle			RBigToe			RSmallToe			RHeel			LHip			LKnee			LAnkle			LBigToe			LSmallToe			LHeel			Neck			Head			Nose			RShoulder			RElbow			RWrist			RThumb			RIndex			RPinky			LShoulder			LElbow			LWrist			LThumb			LIndex			LPinky			
		X1	Y1	Z1	X2	Y2	Z2	X3	Y3	Z3	X4	Y4	Z4	X5	Y5	Z5	X6	Y6	Z6	X7	Y7	Z7	X8	Y8	Z8	X9	Y9	Z9	X10	Y10	Z10	X11	Y11	Z11	X12	Y12	Z12	X13	Y13	Z13	X14	Y14	Z14	X15	Y15	Z15	X16	Y16	Z16	X17	Y17	Z17	X18	Y18	Z18	X19	Y19	Z19	X20	Y20	Z20	X21	Y21	Z21	X22	Y22	Z22	X23	Y23	Z23	X24	Y24	Z24	X25	Y25	Z25	X26	Y26	Z26	X27	Y27	Z27	
22	0.3728813559322034	0.30462533689845434	0.8659166867582019	0.6349147354768312	0.3152041649486129	0.4215412373425338	0.6216416027224896	0.314088453248513	0.0078090681840287945	0.6429448527770191	0.2851044735656117	-0.0006266762771441198	0.4548879591780674	0.35104695916205675	-0.024625126988936097	0.5152022165155622	0.28040530358502325	-0.08187357823164435	0.7092251340047694	0.10399407092082116	0.8725907623813384	0.6220811600690145	0.09842189167602909	0.43242739485055226	0.6016942017523849	0.10350502511274172	0.009596848931263516	0.6124491551463018	0.1286224411857829	-0.019182526647850452	0.4669331685441713	0.060597044861241525	-0.0004390789708443449	0.48174799548477354	0.11927478899665614	-0.06744620322670503	0.6799208741912741	0.197005993619717	1.3704931130155054	0.6619792250914917	0.21590211339035426	1.638300025468369	0.5774536931386544	0.20059089688031584	1.5022135216853536	0.49664997323711957	0.33152324598036065	1.2958280319452506	0.6229021242332943	0.3720274032297277	1.0348681838857998	0.6020045486505615	0.28052802247785524	0.8654189112114119	0.4535644412757771	0.1933894351353029	0.8003999218060258	0.42077930800893565	0.1907506133013081	0.7854113962797934	0.41476163920642234	0.19455618664693847	0.7859807211917518	0.41882425163315606	0.06670451639628144	1.2904753118071794	0.649129540508391	0.03347261333087096	1.0392833859905832	0.5650996872736358	0.12034875358551095	0.871386278365297	0.45472107777551973	0.18976156369550565	0.8140939489535539	0.4168854666375063	0.1944454086223204	0.7935957380304233	0.41556828258292877	0.18416024278384757	0.7727058390367175	0.44223476733935996	
23	0.3898305084745763	0.3047157437564217	0.8656328329213532	0.6348849442494993	0.31478868798686677	0.4212057928741221	0.6224707911728864	0.3136285907240941	0.007664169584374131	0.6427991196301837	0.28510040377074974	-0.0006197578958725136	0.4548785843675316	0.35102308078745803	-0.023373310320936674	0.5151038387553131	0.2799331828354364	-0.08179248395588049	0.7089200832676306	0.1039623632873737	0.8723800432984585	0.6219890126282142	0.09888488547020255	0.4317654671146146	0.6020926251674247	0.10342917296914135	0.009189286758551032	0.6124595088145462	0.12878018014562784	-0.019268225113855092	0.4660180402745497	0.060598120571225975	-0.00035748210420286086	0.4817536368850904	0.11987179659424949	-0.06684641817151107	0.6786180851724879	0.19698825484927873	1.3704922177773056	0.6620055747725968	0.21599111615572847	1.6382977777734256	0.5775007443782947	0.199824149721646	1.5022934559967092	0.49615949896510647	0.33160070559923704	1.2959341430174478	0.6225639040907915	0.37210771570319184	1.0357226949324518	0.6020443165435105	0.2805144077322157	0.8654492542997542	0.4535242823768512	0.19351491135744692	0.8004219197193532	0.42057657611279287	0.19072792201726152	0.7854921930301434	0.41488203648227917	0.19464072069093472	0.7867530095039759	0.4187485669934351	0.06671456567581172	1.2903746930562958	0.6491904285946657	0.03345533286747264	1.0393392667215067	0.5651730559009417	0.1204138001366184	0.8706907145224817	0.4548159552157349	0.18992000256631797	0.8142281697912609	0.416792929117552	0.19396654471333052	0.7937286344303494	0.4152854288226455	0.18415263174775104	0.7728010007953123	0.4422919882411321	
24	0.4067796610169492	0.30480769426189547	0.8652597114219855	0.6348330814053158	0.31433720973105556	0.4206128822489294	0.6234378174658753	0.3131219094469991	0.007461692458550481	0.6426081297026669	0.28510031943875236	-0.0006053857968784243	0.45486524992889105	0.35095648528093715	-0.02209822092809502	0.5150410703565172	0.27944952447392846	-0.08173695799296438	0.7086095700325774	0.10394272956188805	0.871899385344871	0.6218926949362118	0.09925379717616674	0.4312202034949436	0.602416175265343	0.10335346251618875	0.008758869457754573	0.6124668680761378	0.1289241441285912	-0.019439613759366023	0.465161748334441	0.06060844300853947	-0.00024932071271281664	0.4817643095694527	0.12043226380641546	-0.0661872793945521	0.6773582770475617	0.19697253412008903	1.3704851165984657	0.6620290565627274	0.216057280971314	1.6382963492759	0.5775409889761816	0.19910678952496308	1.5023683128987078	0.495687962940472	0.33163879642337835	1.295987875716622	0.6224115390186606	0.3722114647808704	1.0365263105225608	0.6020680869358979	0.28050261964147777	0.8654808196145974	0.45348404611169535	0.1936514341848524	0.8004284943140847	0.42039980654927833	0.19068537358306759	0.7855263966770336	0.4149442197863116	0.19472313912342348	0.787430080963466	0.41867660307774757	0.06672450069791303	1.2903319148880354	0.6492364754634383	0.03341687498594879	1.0396254132543936	0.5653477204467151	0.12046159650843036	0.8702368059153434	0.4549030947293753	0.19006557155649342	0.8143324882576595	0.41673907230834767	0.19333753956417732	0.7939452136909039	0.4149771247007784	0.18414776693030555	0.772856266343085	0.4424131120215213	
25	0.423728813559322	0.3048545578030275	0.8648148836153102	0.634736847603504	0.31391711906231673	0.419849467844229	0.6245500617764246	0.3126366909406554	0.007262661588764555	0.6423823005430972	0.2851035497914281	-0.0005896607008420707	0.4548488774719551	0.3508557052965766	-0.02112335299085754	0.5149827626130677	0.2790162716861283	-0.08177421301409125	0.7083204316107783	0.10395688506150663	0.8712926392424398	0.6217906284252723	0.09954666555556829	0.4308253977672912	0.6026515846223472	0.10329141942283983	0.008385591678763876	0.6124708843340148	0.12884269211070865	-0.019948703728048342	0.4649908740485706	0.060607128546122144	-0.00021114146359273167	0.48178493368786796	0.12092047775149475	-0.06539720711055519	0.676186703155617	0.19696067110357135	1.37047371573593	0.6620486387568658	0.21595402450618098	1.6383043174138423	0.5775133687771717	0.19854437905465272	1.5024256669650042	0.4953083869088202	0.33165050580831207	1.2959960843585288	0.6224083939607858	0.372321298185327	1.0371617001899418	0.6020762863770687	0.28049315527566093	0.8655071928542964	0.45345494208386666	0.19377787668320123	0.8004267756756744	0.4202784575930356	0.19067860701867662	0.7855167298839258	0.41495099215717063	0.1947915184551143	0.7879274619912101	0.4186266839097703	0.0667320078414853	1.2903357457952302	0.6492655492196187	0.03334509734516667	1.040151004877469	0.5655762931225674	0.12046084853570357	0.8702757763895657	0.45492638367030824	0.19017576641303768	0.8143899165804057	0.41673308747951154	0.19265235047122695	0.794148024416611	0.4146645490070225	0.18414948820479216	0.7727751978039099	0.44250026334357023	
26	0.4406779661016949	0.3048348179049997	0.8643445975533744	0.634596041654125	0.3135620102686766	0.41900355523606736	0.6257869631723073	0.31223556894482646	0.0070520387958513675	0.64212337797939	0.2851094525151372	-0.0005788241700563912	0.45483218053784985	0.350747219010453	-0.02076518438978979	0.5149454747054031	0.27868528939175774	-0.0820021980825622	0.7080767794311458	0.10402378181664979	0.8706462709829702	0.6216901079238206	0.09980246448168781	0.43056390269411404	0.6028307091689709	0.1032556066872152	0.008144087462193264	0.6124774636437543	0.12839148997233094	-0.02102913452280849	0.46590191343192244	0.06059690339354253	-0.00023218451479034563	0.48181877172482046	0.12131720348733073	-0.06445103330991896	0.6751521902846986	0.19695400482403314	1.370460835768439	0.662062224207924	0.21557863327723537	1.6383273699302427	0.5773743809926322	0.19821990475953283	1.502455143240467	0.49507814827619606	0.33166793127254796	1.2959868561498131	0.6224479990922835	0.3724218843121631	1.0375231711293031	0.6021100458802975	0.2804863449960772	0.8655220469638016	0.4534443673410625	0.1938747428001679	0.8004130669508107	0.42022417471838525	0.19074668169674008	0.7855069256497376	0.414829556038126	0.19482688790805516	0.7882656443305415	0.4185981630557311	0.06673614886182057	1.290353685454959	0.6492811079713879	0.03323119605633157	1.0408722688017615	0.5657534402101855	0.1204052701546576	0.8708648690585746	0.45486948874240996	0.19024392206230734	0.8143977748448407	0.416775990170462	0.19201252353687737	0.7943052124924979	0.4143784667223074	0.18415405755033346	0.7725044933512142	0.4424339431789345	
27	0.4576271186440678	0.30475042578405837	0.8638844117130315	0.6344265569774225	0.3132856738995029	0.41812216490939536	0.6271189358280616	0.3119417910197849	0.0067976280137617	0.6418408737340314	0.28511709689627507	-0.0005751167065391749	0.45482037082372556	0.35065005822159034	-0.02114240395459851	0.5149518051042605	0.2784770902876798	-0.08248203139807102	0.7078911567421	0.1041319702860592	0.869929610814343	0.6216014716095281	0.10005243717845227	0.43039968628427966	0.6030032689700773	0.1032497042393444	0.008057154624554558	0.6124908458173114	0.12758349411022357	-0.022701194075497276	0.46785880790686585	0.0605862616657753	-0.00027314462822732033	0.48186664683631836	0.12162519957508867	-0.0634592203106839	0.674295462050549	0.19695297550598573	1.3704478536019051	0.6620677303985238	0.21494290597971738	1.638364608728397	0.5771249359803214	0.19814152458625112	1.5024535497823208	0.4950029974947048	0.33170171654996006	1.2959773535614552	0.6224761832057909	0.37250605084999866	1.0375692248358717	0.602255950519701	0.28048211930802336	0.8655217884071978	0.4534534709831911	0.19393524798960354	0.8003549770352802	0.42021543303154985	0.1908847728558935	0.7855239739166427	0.4145563286356154	0.19481317565835088	0.7885397102172869	0.4185756648867459	0.06673648534048512	1.2903678522641004	0.6492852554393429	0.033093422870191125	1.0417072009350372	0.5658361577269417	0.12031066993045839	0.8718283175721194	0.4547509198063099	0.19027996064752356	0.8143747482717995	0.41683805304171234	0.19151557314274015	0.7944130308518506	0.4141540844881374	0.18415678616991846	0.7720647895754169	0.44215774315949613	
28	0.4745762711864407	0.304608073544347	0.8634359560438628	0.6342453717977425	0.3131019741534212	0.41722937267530735	0.6285027638459375	0.31175116581087303	0.006496100025824986	0.6415523203275475	0.28512434520310304	-0.0005780813610513774	0.4548181930855333	0.35060090820235684	-0.022118713055117055	0.5150107601134708	0.2783897337492824	-0.08320936025135393	0.7077664842082879	0.10422977911807979	0.8691362602962289	0.6215263416218564	0.1002810890878757	0.4303219926607002	0.6031748442609607	0.10326825454533467	0.008101089595017194	0.6125100238249808	0.12652481042266633	-0.02483208009516947	0.47056760535398484	0.060578227360439274	-0.00031117702012853354	0.48192508484035756	0.12185000503749874	-0.0625751832992468	0.6736541459833923	0.19695622091840664	1.37043484751986	0.6620670268971287	0.2141373722526188	1.6384099363106845	0.5767981047105444	0.19821393073054222	1.5024315947848137	0.4950225663741171	0.33173913762846846	1.2959732403581459	0.6224866671294687	0.37258470505996033	1.037390879859679	0.6025445496470592	0.2804800908101728	0.8655089857194117	0.453477145344165	0.19396639761473974	0.8002252416403342	0.42021464085719445	0.19099451949479146	0.7855433388737642	0.414359765077596	0.19475797839659775	0.788817953581373	0.41854066843903437	0.06673359094083167	1.290374653127073	0.6492801160666675	0.03301441916277664	1.0424880288053373	0.5659804899814795	0.12020523522557874	0.8728305318151672	0.4546079964756714	0.1902977401977149	0.8143488892311117	0.4168767128442613	0.1912356181374517	0.7944688180245131	0.4140232124916408	0.18415642812854333	0.7715222299883718	0.4416814468846454	
